<?xml version="1.0" encoding="UTF-8"?>
<svg width="170px" height="170px" viewBox="0 0 170 170" version="1.1" xmlns="http://www.w3.org/2000/svg" xmlns:xlink="http://www.w3.org/1999/xlink">
    <!-- Generator: Sketch 49 (51002) - http://www.bohemiancoding.com/sketch -->
    <title>female-user</title>
    <desc>Created with Sketch.</desc>
    <defs></defs>
    <g id="🙃Templates" stroke="none" stroke-width="1" fill="none" fill-rule="evenodd">
        <g id="teaserbox" transform="translate(-1758.000000, -392.000000)">
            <g id="DARK" transform="translate(252.000000, 212.000000)">
                <g id="Group-14" transform="translate(1401.000000, 124.000000)">
                    <g id="female-user" transform="translate(105.000000, 56.000000)">
                        <circle id="Oval-4" fill="#026D60" cx="85" cy="85" r="85"></circle>
                        <path d="M125.186111,126.933333 L44.8138889,126.933333 C43.8494222,126.933333 43.0666667,126.150578 43.0666667,125.186111 C43.0666667,116.149478 49.1819444,108.314933 57.9425167,106.123917 L71.3297333,102.776239 L72.1020056,99.6906444 C62.8102778,98.1356167 58.1032611,95.3540389 57.8935944,95.2317333 C57.3938889,94.9347056 57.0758944,94.4070444 57.0444444,93.8234722 C57.0164889,93.2433944 57.2785722,92.6877778 57.7433333,92.3383333 C57.7887611,92.3033889 64.0333333,87.1455889 64.0333333,69.275 C64.0333333,49.6676722 78.4339389,43.0666667 85,43.0666667 C90.0599556,43.0666667 91.9434611,44.1359667 94.4524722,46.5611111 L95.4833333,46.5611111 C102.440772,46.5611111 105.966667,54.2034611 105.966667,69.275 C105.966667,87.1455889 112.211239,92.3033889 112.274139,92.3523111 C112.724922,92.7122389 112.980017,93.2748444 112.941578,93.8479333 C112.903139,94.4245167 112.592133,94.9486833 112.095922,95.2387222 C111.886256,95.3645222 107.130317,98.1286278 97.8979944,99.6836556 L98.6702667,102.776239 L112.057483,106.123917 C120.818056,108.314933 126.933333,116.149478 126.933333,125.179122 C126.933333,126.143589 126.150578,126.933333 125.186111,126.933333 Z M46.6519667,123.438889 L123.344539,123.438889 C122.628178,116.7645 117.837294,111.173389 111.208333,109.513528 L96.8042333,105.91425 C96.1822222,105.757 95.693,105.267778 95.53575,104.642272 L94.0436222,98.6737611 C93.9213167,98.1950222 94.0121722,97.6848333 94.2882333,97.2724889 C94.5642944,96.8636389 95.0045944,96.5875778 95.4938167,96.5211833 C101.720917,95.6475722 106.029567,94.1484556 108.339394,93.1735056 C106.064511,90.1333389 102.472222,83.1374611 102.472222,69.275 C102.472222,62.0974111 101.563667,50.0555556 95.4833333,50.0555556 L93.7361111,50.0555556 C93.27135,50.0555556 92.8275556,49.87035 92.4990778,49.5453667 C90.2346778,47.2774722 89.3121444,46.5611111 85,46.5611111 C81.5335111,46.5611111 67.5277778,50.6041833 67.5277778,69.275 C67.5277778,83.1514389 63.9285,90.1438222 61.6536167,93.1804944 C63.9494667,94.1554444 68.2406444,95.6580556 74.5026889,96.5281722 C74.9954056,96.5980611 75.4322111,96.8706278 75.7117667,97.2794778 C75.9878278,97.6918222 76.0786833,98.2020111 75.9563778,98.68075 L74.46425,104.642272 C74.307,105.267778 73.8177778,105.757 73.1922722,105.91425 L58.7916667,109.513528 C52.1592111,111.173389 47.3683278,116.767994 46.6519667,123.438889 Z" id="Shape" fill="#FFFFFF" fill-rule="nonzero"></path>
                    </g>
                </g>
            </g>
        </g>
    </g>
</svg>