<?xml version="1.0" encoding="UTF-8"?>
<svg width="223px" height="222px" viewBox="0 0 223 222" version="1.1" xmlns="http://www.w3.org/2000/svg" xmlns:xlink="http://www.w3.org/1999/xlink">
    <!-- Generator: Sketch 49 (51002) - http://www.bohemiancoding.com/sketch -->
    <title>Icon</title>
    <desc>Created with Sketch.</desc>
    <defs>
        <path d="M110,189 C67.4740743,189 33,154.973641 33,113 C33,71.026359 67.4740743,37 110,37 C152.525926,37 187,71.026359 187,113 C187,154.973641 152.525926,189 110,189 Z M110.5,158 C135.628956,158 156,137.852814 156,113 C156,88.1471863 135.628956,68 110.5,68 C85.3710439,68 65,88.1471863 65,113 C65,137.852814 85.3710439,158 110.5,158 Z" id="path-1"></path>
        <filter x="-10.1%" y="-5.6%" width="120.1%" height="120.4%" filterUnits="objectBoundingBox" id="filter-2">
            <feOffset dx="0" dy="7" in="SourceAlpha" result="shadowOffsetOuter1"></feOffset>
            <feGaussianBlur stdDeviation="4" in="shadowOffsetOuter1" result="shadowBlurOuter1"></feGaussianBlur>
            <feColorMatrix values="0 0 0 0 0   0 0 0 0 0   0 0 0 0 0  0 0 0 0.243404665 0" type="matrix" in="shadowBlurOuter1"></feColorMatrix>
        </filter>
    </defs>
    <g id="🙃Templates" stroke="none" stroke-width="1" fill="none" fill-rule="evenodd">
        <g id="teaserbox" transform="translate(-3092.000000, -1136.000000)">
            <g id="LIGHT" transform="translate(252.000000, 1131.000000)">
                <g id="Modular-System-Copy" transform="translate(2789.000000, 0.000000)">
                    <g id="Icon" transform="translate(51.000000, 5.000000)">
                        <circle id="Oval-2" fill="#026D60" cx="111.695313" cy="111" r="110.938673"></circle>
                        <g id="Combined-Shape">
                            <use fill="black" fill-opacity="1" filter="url(#filter-2)" xlink:href="#path-1"></use>
                            <use fill="#008171" fill-rule="evenodd" xlink:href="#path-1"></use>
                        </g>
                        <g id="Page-1" transform="translate(15.000000, 16.000000)">
                            <path d="M52.56522,112 L26,127.347409 C32.3842865,142.389368 43.6029473,154.912861 57.7246597,163 L70,135.157492 C61.8499576,129.640443 55.6338383,121.519748 52.56522,112" id="Fill-1" fill="#000000"></path>
                            <path d="M71,60.8905594 L55.0422284,35 C41.3512888,43.810654 30.6934589,56.9856594 25,72.5817202 L53.0651287,84 C56.3326189,74.4238844 62.7188411,66.3106896 71,60.8905594" id="Fill-3" fill="#000000"></path>
                            <path d="M138.091378,110 C135.246399,119.946837 129.128144,128.473822 121,134.294953 L134.266824,162 C148.182971,153.34179 159.083853,140.163324 165,124.471467 L138.091378,110 Z" id="Fill-5" fill="#000000"></path>
                            <path d="M137.380777,82 L165,68.9079612 C158.693076,53.819594 147.546301,41.2197176 133.474119,33 L119,59.6710503 C127.371659,64.8625419 133.897901,72.6990821 137.380777,82" id="Fill-7" fill="#000000"></path>
                            <path d="M106.883421,156.318161 C106.243725,156.503306 105.330978,156.771136 104.219022,157.022789 C102.000264,157.540475 98.9906869,158.013223 95.957926,158.072541 C92.9260238,158.152531 89.8992734,157.828977 87.6599075,157.421839 C87.1009247,157.31938 86.5908851,157.205237 86.1375165,157.115361 C85.6867239,157.00751 85.2943197,156.914039 84.9706077,156.836746 C84.6468956,156.763047 84.3961691,156.689349 84.2235799,156.641715 C84.0518494,156.594081 83.9608322,156.568016 83.9608322,156.568016 L83,160.351797 C83,160.351797 83.0996037,160.379659 83.2859313,160.430888 C83.4722589,160.483016 83.7453104,160.562107 84.097358,160.642995 C84.4485469,160.727479 84.8744386,160.829039 85.3638705,160.945878 C85.8575958,161.043843 86.4114267,161.167871 87.0193527,161.278419 C89.4527741,161.722407 92.7457067,162.073822 96.0429326,161.986642 C99.3418758,161.921931 102.615059,161.408739 105.025297,160.846115 C106.232563,160.571993 107.223448,160.281694 107.917239,160.08127 C108.610172,159.874555 109,159.736146 109,159.736146 L107.881176,156 C107.881176,156 107.522259,156.128523 106.883421,156.318161" id="Fill-9" fill="#FFFFFF"></path>
                            <path d="M76.6107835,154 L75,157.108817 C75,157.108817 76.1600674,157.649722 77.3546757,158.115965 C78.5442291,158.594122 79.7641112,159 79.7641112,159 L81,155.742653 C81,155.742653 79.8761584,155.368546 78.7801179,154.92772 C77.6790227,154.498014 76.6107835,154 76.6107835,154" id="Fill-11" fill="#FFFFFF"></path>
                            <path d="M116.271045,153 C116.271045,153 115.234173,153.628394 114.163072,154.184174 C113.629609,154.467184 113.089467,154.734368 112.680395,154.923351 C112.274663,155.119783 112,155.241738 112,155.241738 L113.366634,159 C113.366634,159 113.664672,158.867804 114.104633,158.654616 C114.548769,158.449806 115.133992,158.159348 115.711702,157.853064 C116.8738,157.249806 118,156.567417 118,156.567417 L116.271045,153 Z" id="Fill-13" fill="#FFFFFF"></path>
                            <path d="M84.1165786,40.6818256 C84.7562748,40.4966733 85.6698811,40.2288316 86.7818362,39.9771683 C88.9997358,39.4594609 92.0093131,38.9866933 95.042074,38.9273727 C98.0739762,38.8473797 101.101585,39.1718456 103.340092,39.579001 C103.899934,39.6805651 104.409974,39.7956112 104.863342,39.8845921 C105.314135,39.9924479 105.706539,40.0859228 106.030251,40.1632194 C106.353104,40.2378196 106.603831,40.3106222 106.77642,40.3591573 C106.948151,40.4067936 107.039168,40.4319599 107.039168,40.4319599 L108,36.6480219 C108,36.6480219 107.901255,36.6201592 107.714069,36.5689277 C107.5286,36.5167974 107.25469,36.4377032 106.903501,36.3568115 C106.552312,36.2732233 106.125561,36.1707603 105.636129,36.0548155 C105.143263,35.9559477 104.589432,35.8319136 103.980647,35.7213615 C101.547226,35.2782543 98.2551519,34.9268244 94.9570674,35.013109 C91.6589828,35.0778224 88.3849406,35.5910359 85.9755614,36.1536832 C84.7682959,36.4278165 83.7765522,36.7181281 83.0827609,36.9194588 C82.3898283,37.1252834 82,37.2636983 82,37.2636983 L83.1188243,41 C83.1188243,41 83.4785997,40.8714719 84.1165786,40.6818256" id="Fill-15" fill="#FFFFFF"></path>
                            <path d="M115.390059,43 L117,39.8911835 C117,39.8911835 115.840775,39.350278 114.646167,38.8832407 C113.455771,38.4050834 112.236731,38 112.236731,38 L111,41.2573471 C111,41.2573471 112.123842,41.6314535 113.220725,42.0722796 C114.32182,42.5011914 115.390059,43 115.390059,43" id="Fill-17" fill="#FFFFFF"></path>
                            <path d="M75.7281202,44 C75.7281202,44 76.7649923,43.3716059 77.8360929,42.8158262 C78.3695561,42.5328161 78.9096981,42.2656323 79.31877,42.0766486 C79.7253374,41.8792863 80,41.7582622 80,41.7582622 L78.632531,38 C78.632531,38 78.3353277,38.1321955 77.8953666,38.345384 C77.4503965,38.5501939 76.8660081,38.8406517 76.2874635,39.1469356 C75.1262001,39.7501939 74,40.4316524 74,40.4316524 L75.7281202,44 Z" id="Fill-19" fill="#FFFFFF"></path>
                            <path d="M39.2410248,67.850277 C38.1943346,67.418907 37.705251,66.1928175 38.1849127,65.16304 C39.5185434,62.3010164 41.1648106,59.5965591 43.0937357,57.1013291 C45.3301581,54.2083089 47.922044,51.6261161 50.8171447,49.4021067 C51.7147972,48.7132924 53.007314,48.935435 53.6488614,49.8696395 L53.6488614,49.8705005 C54.2535777,50.7513218 54.0574304,51.9472758 53.2128833,52.5973443 C50.5978708,54.6086822 48.2560941,56.9429018 46.236376,59.5560913 C44.4941764,61.8102362 43.0063687,64.2529441 41.7986492,66.839442 C41.3472534,67.8080871 40.2260443,68.2566775 39.2410248,67.850277" id="Fill-21" fill="#FFFFFF"></path>
                            <path d="M53.6175239,147.176388 C52.9428538,148.086476 51.6162359,148.275972 50.7143454,147.575773 C48.2070549,145.628983 45.9304806,143.41707 43.9274447,140.980821 C41.6063002,138.157084 39.6749262,135.061425 38.1700276,131.756726 C37.7042256,130.731921 38.2320763,129.536315 39.3070039,129.132681 L39.3078778,129.132681 C40.3207567,128.751991 41.4542373,129.217657 41.8946955,130.182129 C43.2562704,133.16817 45.0023723,135.964715 47.0997921,138.516531 C48.9088166,140.716547 50.9651618,142.715172 53.2295012,144.475865 C54.0772083,145.135276 54.2537412,146.319835 53.6175239,147.176388" id="Fill-23" fill="#FFFFFF"></path>
                            <path d="M134.331613,48.8989997 C134.953539,47.9463535 136.230392,47.7075407 137.12732,48.3918481 C139.620102,50.2945351 141.898806,52.4751135 143.920278,54.8945048 C146.264136,57.6994702 148.23907,60.7953531 149.807001,64.119628 C150.293542,65.1495627 149.82477,66.3896526 148.79838,66.8386208 L148.797534,66.8386208 C147.829529,67.2615366 146.716831,66.8255946 146.258213,65.8538434 C144.83836,62.8517489 143.052966,60.0554675 140.935878,57.5205777 C139.109022,55.3356572 137.051166,53.3643657 134.799539,51.6440448 C133.956765,50.9996844 133.746072,49.7960676 134.331613,48.8989997" id="Fill-25" fill="#FFFFFF"></path>
                            <path d="M150.779214,129.178183 C151.844624,129.652939 152.309692,130.918955 151.780965,131.954625 C150.311494,134.833052 148.523726,137.53916 146.452143,140.021957 C144.05077,142.901263 141.292196,145.452635 138.233008,147.626841 C137.284307,148.30117 135.957185,148.032141 135.325896,147.057134 L135.325012,147.056255 C134.731742,146.138393 134.973117,144.92337 135.866117,144.287725 C138.629111,142.321005 141.120669,140.014923 143.290394,137.414317 C145.162157,135.170656 146.777514,132.726543 148.107288,130.126816 C148.605069,129.152687 149.775694,128.731561 150.779214,129.178183" id="Fill-27" fill="#FFFFFF"></path>
                            <path d="M24.4333453,72 C30.2263577,56.3032759 41.0696662,43.0432336 55,34.175712 L48.69571,29.9411326 C46.8609187,28.7091912 44.4673301,28.6846226 42.6078989,29.8797111 C31.5701114,36.9739038 22.7710332,47.0382689 17.2288195,58.9093059 L16.5169029,60.4334386 C15.4292281,62.7648263 16.0997849,65.5366946 18.1360952,67.1152293 L24.4333453,72 Z" id="Fill-29" fill="#000000"></path>
                            <path d="M134,33.8174238 C148.52838,42.0796832 159.820235,54.8901198 166.269589,70 L171.48594,64.5198051 C173.00328,62.9259321 173.422765,60.5836472 172.550448,58.5657324 C167.37271,46.5815217 158.89614,36.3013475 148.100997,28.9151498 L146.714416,27.9656457 C144.594177,26.5151602 141.749932,26.7162522 139.856986,28.4508895 L134,33.8174238 Z" id="Fill-31" fill="#000000"></path>
                            <path d="M166.021491,125 C159.889536,140.388474 148.88905,153.211331 135,161.587005 L141.041526,165.972398 C142.800157,167.248244 145.140979,167.343976 146.995206,166.215209 C158.002582,159.511363 166.907697,149.796312 172.680519,138.193601 L173.422899,136.702794 C174.556277,134.424374 173.981837,131.65598 172.03718,130.030278 L166.021491,125 Z" id="Fill-33" fill="#000000"></path>
                            <path d="M26.0910192,128 L21.4473292,133.03919 C19.9724574,134.639609 19.5869208,136.969464 20.4658063,138.964993 C25.6830575,150.811389 34.1251892,160.927978 44.8141286,168.146794 L46.1872256,169.074221 C48.2856836,170.49228 51.0801775,170.261292 52.9207485,168.51846 L58,163.710258 C43.8567557,155.670826 32.5778676,143.121913 26.0910192,128" id="Fill-35" fill="#000000"></path>
                            <g id="Group-39" fill="#000000">
                                <path d="M186.340978,107.481959 C184.632668,110.466434 182.125406,112.965932 179.472091,115.61205 C176.337145,118.737073 173.110915,121.958397 171.226123,126.106297 L168.138992,123.556479 L168.170289,123.474927 L168.138123,123.457575 C171.043555,115.355247 172.631893,106.632598 172.631893,97.5464338 C172.631893,87.940589 170.856641,78.7416393 167.626064,70.2515023 L169.940325,67.8170731 L177.163915,75.1784886 C179.704213,77.767347 182.330577,80.4429635 184.352731,83.4204977 C189.468969,90.9510913 190.268789,100.621137 186.340978,107.481959 Z M172.027681,135.464881 L171.279154,136.951046 C165.614343,148.194014 156.911086,157.56995 146.11265,164.065521 C144.929438,164.776068 143.441947,164.715338 142.323068,163.912826 L138.745614,161.347393 C140.10183,160.426023 141.427618,159.462142 142.72037,158.458352 C153.298857,150.559037 161.792595,140.006662 167.160951,127.982005 L171.145271,131.271868 C172.391077,132.29995 172.753605,134.024699 172.027681,135.464881 Z M124.408843,174.400132 C119.054397,179.214333 113.996406,183.762187 107.534384,185.348123 C98.4312171,187.580406 89.0211631,183.335338 79.3746405,178.397073 L57.103136,166.995338 L58.734073,165.464927 L58.7810189,165.492689 L58.8062306,165.437164 C69.6994288,171.305475 82.1557532,174.639584 95.3788613,174.639584 C109.31746,174.639584 122.405816,170.935886 133.708487,164.46374 L133.733699,164.515795 L135.089046,163.688991 L136.786055,164.906205 C132.183614,167.412644 128.236677,170.956708 124.408843,174.400132 Z M47.6670009,166.651776 L46.2820955,165.724333 C35.8105414,158.714288 27.5732667,148.928854 22.4613748,137.426479 C21.9032396,136.167621 22.1475324,134.702279 23.085582,133.694151 L25.7058613,130.875384 C25.7110775,130.888397 25.7180324,130.899676 25.724118,130.912689 C26.9177622,133.384425 28.2426811,135.788489 29.6927892,138.116205 C29.7075685,138.13963 29.7232171,138.163922 29.737127,138.188215 C30.2083252,138.942142 30.692564,139.686525 31.1881045,140.4231 C31.2167937,140.465612 31.2454829,140.507256 31.2741721,140.549767 C31.7749288,141.29068 32.2878568,142.022918 32.8138252,142.745612 C32.8199108,142.754288 32.8259964,142.762963 32.832082,142.770772 C34.4543252,144.997849 36.1956721,147.138169 38.0448207,149.182187 C38.0569919,149.196068 38.0682937,149.208215 38.0804649,149.221228 C43.037609,154.693922 48.7719694,159.469082 55.1018477,163.340224 L51.9451676,166.300406 C50.7689108,167.405703 49.0101766,167.550589 47.6670009,166.651776 Z M4.68016306,103.675018 C3.18310901,98.1650183 4.41500541,91.4673014 8.06114054,85.2988082 C11.3630054,79.7124612 16.3192802,74.8548813 20.5026856,70.8726895 L22.3492261,72.3059315 L22.1831766,72.7570731 L22.2188207,72.7709543 C19.5663748,80.5505434 18.1266991,88.8836484 18.1266991,97.5464338 C18.1266991,107.515795 20.0323568,117.048763 23.4994018,125.802644 L23.4663658,125.821731 L23.9123523,126.876708 L21.4294333,129.548854 L11.1647892,115.313603 C8.54277117,111.678443 5.83294685,107.919219 4.68016306,103.675018 Z M18.7648162,61.0325982 L19.4672667,59.5256119 C24.7904153,48.1169361 33.2050414,38.4841963 43.8043928,31.6658858 C44.3729604,31.2997671 45.0215099,31.1175753 45.6691901,31.1175753 C46.3412126,31.1175753 47.0123658,31.3136484 47.5948432,31.7049269 L51.3235685,34.2113653 C51.313136,34.2200411 51.3018342,34.2278493 51.2905324,34.2356575 C50.6054694,34.7128265 49.9308387,35.2030091 49.2614243,35.701 C49.1562306,35.7799498 49.0492982,35.858032 48.9441045,35.9369817 C48.3007712,36.4219589 47.6643928,36.9182146 47.0367081,37.4231461 C46.9219514,37.5151096 46.8071946,37.6070731 46.6933072,37.6999041 C46.0647532,38.2117763 45.4422847,38.7314566 44.8302486,39.2624155 C44.7424423,39.3387626 44.6555054,39.4151096 44.5685685,39.4914566 C43.9278432,40.0519132 43.294073,40.6201781 42.6724739,41.200589 C42.668127,41.2040594 42.6637802,41.2083973 42.6603027,41.2118676 C42.0369649,41.7948813 41.4249288,42.3909087 40.8198477,42.9930091 C40.7468207,43.0658858 40.6729243,43.137895 40.6007667,43.2107717 C40.0235054,43.7911826 39.4575459,44.381137 38.8994108,44.9788995 C38.8063883,45.0795388 38.711627,45.1793105 38.6186045,45.2808174 C38.0682937,45.8768447 37.5266766,46.4798128 36.9954919,47.0931918 C36.9137712,47.1860228 36.8337892,47.280589 36.7538072,47.3751553 C36.2078432,48.0093562 35.6697036,48.6513653 35.1454739,49.3029178 C35.1133072,49.3428265 35.0828793,49.3827352 35.0507126,49.4226438 C34.5273523,50.0759315 34.013555,50.7370274 33.5119288,51.4067991 C33.4684604,51.4640594 33.4241225,51.5204521 33.3823928,51.5777123 C32.8868523,52.241411 32.4052216,52.914653 31.9314153,53.5931005 C31.8557802,53.7006804 31.780145,53.8082603 31.7053793,53.9167078 C31.2463523,54.581274 30.798627,55.2527808 30.3604649,55.9312283 L30.1387757,56.2782603 C29.6980054,56.9688539 29.2667982,57.664653 28.8495009,58.3691279 C28.8016856,58.4489452 28.755609,58.5296301 28.7086631,58.6094475 C28.2861495,59.3260685 27.8749378,60.047895 27.4767667,60.7775297 C27.4576405,60.8122329 27.437645,60.8460685 27.4185189,60.8816393 C27.0194784,61.6130091 26.6360865,62.3539224 26.2613883,63.0991735 C26.2031405,63.2154292 26.1431541,63.3308174 26.0857757,63.4479406 C25.7293342,64.1645616 25.3859333,64.8881233 25.0529649,65.6160228 C24.9886315,65.7548356 24.9260369,65.8936484 24.8634423,66.0333288 C24.5348207,66.7629635 24.2157622,67.4978037 23.9097441,68.2387169 C23.8923568,68.2812283 23.8723613,68.3237397 23.8549739,68.3671187 L19.7715459,65.1987169 C18.4970505,64.2088082 18.0823613,62.4953379 18.7648162,61.0325982 Z M67.6764063,18.92721 C71.721582,15.0881689 75.5433297,11.4625525 79.8441,8.96565753 C89.9331315,3.10515525 102.983235,3.08780365 113.091393,8.92054338 C117.600812,11.5224155 121.385177,15.0829635 125.392969,18.8534658 C128.854798,22.1112283 132.421821,25.4661598 136.507857,28.1495845 L133.791077,30.6430091 L132.769568,30.0417763 L132.743487,30.0903607 C121.663375,23.953968 108.923636,20.4524155 95.3788613,20.4524155 C80.8464829,20.4524155 67.2408523,24.480589 55.6182532,31.4715479 L55.5886946,31.4238311 L54.9810054,31.8099041 L52.944073,30.4399954 C58.4393568,27.6836941 63.1235189,23.2468904 67.6764063,18.92721 Z M164.527632,121.553237 L140.811235,109.040132 C141.745807,105.361594 142.243956,101.511274 142.243956,97.5464338 C142.243956,92.4823699 141.431095,87.6057032 139.932303,83.0352922 L163.825181,71.6179406 C166.901879,79.6803607 168.592803,88.4194932 168.592803,97.5464338 C168.592803,105.952416 167.158343,114.029584 164.527632,121.553237 Z M60.4302126,161.733466 L71.0530369,137.508032 C78.1488297,141.82511 86.4782577,144.315932 95.3788613,144.315932 C104.553316,144.315932 113.119213,141.668945 120.354105,137.10374 L131.878465,160.715795 L131.367276,161.021183 L131.470731,161.094927 C120.812262,167.147164 108.494168,170.608808 95.3788613,170.608808 C82.7304063,170.608808 70.8217847,167.390954 60.4302126,161.733466 Z M25.9710189,74.2822785 L50.475064,84.1527352 C49.2014378,88.3978037 48.5137667,92.8936027 48.5137667,97.5464338 C48.5137667,101.948534 49.1275414,106.210954 50.2716315,110.252142 L27.0377351,123.748215 C23.8940955,115.610315 22.1649198,106.776616 22.1649198,97.5464338 C22.1649198,89.4163425 23.504618,81.5933744 25.9710189,74.2822785 Z M130.692645,33.8990365 L118.362379,56.8005434 C111.567388,52.9684429 103.725677,50.7778037 95.3788613,50.7778037 C86.7277667,50.7778037 78.6174198,53.1315479 71.6537712,57.2282603 L57.7499468,34.8950183 C68.753555,28.2892648 81.6289153,24.4831918 95.3788613,24.4831918 C108.155114,24.4831918 120.175014,27.7695845 130.641352,33.534653 L130.416186,33.7402694 L130.692645,33.8990365 Z M121.806821,58.9217763 L134.186641,35.9265708 C137.81365,38.1015936 141.241573,40.5880776 144.428681,43.3530548 C146.215235,44.9641507 147.923546,46.661137 149.543181,48.4388082 C149.551875,48.4483516 149.559699,48.457895 149.568393,48.4674384 C150.327352,49.3003151 151.067186,50.1522785 151.787023,51.0198584 C151.816582,51.0554292 151.846141,51.0901324 151.87483,51.1257032 C152.238226,51.5646986 152.596406,52.008032 152.94937,52.4557032 C152.960672,52.4713196 152.972843,52.4869361 152.985014,52.5016849 C153.684857,53.3909543 154.362965,54.2958402 155.021947,55.21721 C155.042812,55.2467078 155.064546,55.2779406 155.08715,55.3083059 C157.883041,59.2315023 160.296411,63.4436027 162.28205,67.8856119 L138.515231,79.2431005 C135.022974,71.0670274 129.180812,63.9606804 121.806821,58.9217763 Z M54.3463658,37.0665708 L68.2545369,59.4058858 C60.8753297,64.6460685 55.1192351,71.9658402 51.7921586,80.3362511 L27.3689649,70.4987626 C32.8390369,56.850863 42.3169018,45.2200868 54.3463658,37.0665708 Z M40.1504333,145.457667 C40.0687126,145.363968 39.9869919,145.269402 39.9061405,145.174836 C39.2158613,144.375795 38.5421,143.561137 37.8857261,142.732598 C37.8492126,142.685749 37.8109604,142.639767 37.7744468,142.592918 C36.7007757,141.228215 35.6740505,139.82447 34.6968793,138.384288 C34.689055,138.370406 34.6794919,138.356525 34.6699288,138.343511 C32.3547982,134.923511 30.3222126,131.297895 28.6052081,127.501365 L51.5643838,114.166662 C51.626109,114.329767 51.6956586,114.489402 51.7591225,114.651639 C51.7730324,114.686342 51.7878117,114.721046 51.8008523,114.755749 C52.068618,115.427256 52.3511631,116.092689 52.6493568,116.751183 C52.654573,116.761594 52.6580505,116.772005 52.6632667,116.782416 C52.8136676,117.113831 52.9675459,117.441776 53.1257712,117.768854 C53.1448973,117.808763 53.1648928,117.847804 53.1831495,117.886845 C53.6578252,118.86374 54.1664063,119.823283 54.7071541,120.76374 C54.7314964,120.806251 54.7567081,120.848763 54.7810505,120.891274 C55.3304919,121.837804 55.9121,122.765247 56.5250054,123.671868 C56.5284829,123.676205 56.531091,123.680543 56.5336991,123.685749 C59.5365009,128.118215 63.2886991,132.046616 67.6372847,135.241913 L56.917091,159.687712 C50.6350279,155.801822 44.9815189,150.996297 40.1504333,145.457667 Z M136.322681,110.081228 C136.286168,110.199219 136.247915,110.31721 136.210532,110.435201 C136.035789,110.986114 135.851483,111.530954 135.654136,112.071457 C135.622839,112.15995 135.591541,112.247575 135.559375,112.335201 C135.337686,112.932963 135.103825,113.524653 134.856924,114.109402 C134.846492,114.135429 134.83519,114.162324 134.823888,114.187484 C128.308834,129.509813 113.08096,140.284288 95.3788613,140.284288 C79.8997396,140.284288 66.3141045,132.045749 58.7888432,119.733055 C58.7645009,119.692279 58.7410279,119.651502 58.7158162,119.610726 C58.3941495,119.081502 58.0846541,118.543603 57.785591,117.998763 C57.7499468,117.932826 57.7134333,117.86689 57.6777892,117.800954 C57.3813342,117.253511 57.0970505,116.699995 56.8240685,116.139539 C56.8032036,116.097027 56.7823387,116.055384 56.7614739,116.012872 C54.0664288,110.420452 52.5528568,104.156525 52.5528568,97.5464338 C52.5528568,92.4199041 53.4639559,87.5015936 55.1296676,82.9424612 C55.1496631,82.8904064 55.1687892,82.8383516 55.1879153,82.7854292 C55.4165595,82.1677123 55.6582441,81.5560685 55.9138387,80.9522329 C55.919055,80.9383516 55.9251405,80.9253379 55.9303568,80.9114566 C57.2839649,77.7283059 59.0122712,74.7412283 61.0613748,72.0066164 C61.0691991,71.9962055 61.0770234,71.9866621 61.0848477,71.9762511 C68.9022171,61.5609543 81.3654964,54.8085799 95.3788613,54.8085799 C110.871893,54.8085799 124.470568,63.0618676 131.990614,75.394516 C131.99496,75.400589 131.999307,75.4075297 132.002785,75.4144703 C132.356618,75.9948813 132.697411,76.5848356 133.024294,77.1834658 C133.026902,77.1886712 133.02951,77.1938767 133.032987,77.1990822 C136.330505,83.2521872 138.205735,90.1850183 138.205735,97.5464338 C138.205735,101.90689 137.544145,106.115521 136.322681,110.081228 Z M138.042294,116.894333 C138.070983,116.833603 138.098803,116.772872 138.125753,116.712142 C138.272677,116.387667 138.416123,116.063192 138.555222,115.735247 C138.55696,115.730909 138.558699,115.725703 138.561307,115.721365 C138.827334,115.093237 139.078582,114.459037 139.316789,113.818763 C139.35678,113.711183 139.397641,113.603603 139.436762,113.495155 C139.500226,113.321639 139.568906,113.150726 139.630632,112.976342 L163.080132,125.3489 C158.003014,137.615612 149.675325,148.214836 139.169866,156.064699 C139.159433,156.072507 139.149001,156.081183 139.137699,156.088991 C139.082929,156.129767 139.02642,156.168808 138.97165,156.209584 C137.791046,157.050269 136.576537,157.844105 135.346379,158.613648 L123.720303,134.794242 C129.026064,130.765201 133.399861,125.646479 136.561758,119.852781 C136.570451,119.836297 136.580014,119.82068 136.588708,119.804196 C137.106852,118.851594 137.59196,117.880772 138.042294,116.894333 Z M145.268492,29.2115023 L146.642095,30.1536941 C157.036276,37.2782603 165.165749,47.1530548 170.150713,58.7118219 C170.696677,59.9758858 170.434996,61.437758 169.485645,62.43721 L166.391559,65.6932374 C161.902136,56.2279406 155.485321,47.7516849 147.675776,40.8353379 C144.477366,37.8899041 141.030316,35.207347 137.370271,32.834516 L140.985978,29.5160228 C142.175276,28.4237397 143.936618,28.2988082 145.268492,29.2115023 Z M187.697195,81.1587169 C185.46987,77.8818676 182.714839,75.0735114 180.050222,72.3579863 L172.710136,64.8785799 C174.527987,62.724379 174.987014,59.727758 173.861181,57.11721 C168.573677,44.8591735 159.952141,34.3866164 148.929406,26.8317306 L147.555803,25.8895388 C145.197204,24.2732374 142.221352,24.1552466 139.801897,25.4488082 C135.581978,22.8851096 131.970618,19.5024155 128.16365,15.9201781 C124.163681,12.157484 120.02983,8.26725571 115.112677,5.43026941 C103.774361,-1.11215068 89.1333117,-1.09306393 77.8123838,5.48058904 C73.1021405,8.21606849 68.9291676,12.1757032 64.8926856,16.0060685 C59.7042892,20.9287169 54.787136,25.5858858 48.9041135,27.8207717 C46.5820279,26.7076667 43.8235189,26.8568904 41.6144514,28.2779863 C30.3752441,35.5083973 21.4502982,45.7250183 15.8054829,57.8242877 L15.1021631,59.3321416 C13.6224964,62.5040137 14.5179468,66.2181233 17.2808027,68.370589 C13.0078523,72.4482146 8.04462252,77.3942877 4.58192432,83.2504521 C0.324622523,90.4531005 -1.02550811,98.0817306 0.781910811,104.729995 C2.12595586,109.680406 5.18613604,113.92374 7.88552793,117.668215 L18.8378432,132.857804 C17.9302216,134.784699 17.8737126,137.043877 18.7691631,139.060132 C24.1896811,151.259174 32.9259739,161.638032 44.0330369,169.073192 L45.4162036,169.999767 C46.6950459,170.854333 48.1477622,171.27511 49.5909153,171.27511 C51.110573,171.27511 52.6180595,170.801411 53.9038568,169.888717 L77.5307081,181.983648 C85.8349243,186.23479 94.013082,190.000087 102.319906,190.000087 C104.369879,190.000087 106.428546,189.771046 108.498514,189.262644 C115.946402,187.434653 121.623384,182.329813 127.111713,177.394151 C131.15428,173.758991 135.335077,169.999767 140.094005,167.739721 L139.758429,167.036982 L139.966208,167.186205 C141.268523,168.120589 142.798614,168.591685 144.33392,168.591685 C145.666663,168.591685 147.003753,168.23511 148.196528,167.517621 C159.651339,160.629037 168.880564,150.685703 174.887037,138.762553 L175.636433,137.276388 C177.058722,134.454151 176.551879,131.13479 174.457568,128.871274 C175.896375,124.879539 179.01915,121.760589 182.3271,118.463785 C185.052573,115.746525 187.871068,112.936434 189.848884,109.480863 C194.522614,101.315201 193.656722,89.9334201 187.697195,81.1587169 Z" id="Fill-37"></path>
                            </g>
                        </g>
                    </g>
                </g>
            </g>
        </g>
    </g>
</svg>