<?xml version="1.0" encoding="UTF-8"?>
<svg width="253px" height="222px" viewBox="0 0 253 222" version="1.1" xmlns="http://www.w3.org/2000/svg" xmlns:xlink="http://www.w3.org/1999/xlink">
    <!-- Generator: Sketch 49 (51002) - http://www.bohemiancoding.com/sketch -->
    <title>Group 12</title>
    <desc>Created with Sketch.</desc>
    <defs>
        <polygon id="path-1" points="0.62155058 0.509364173 209.216703 0.509364173 209.216703 125.362311 0.62155058 125.362311"></polygon>
    </defs>
    <g id="🙃Templates" stroke="none" stroke-width="1" fill="none" fill-rule="evenodd">
        <g id="teaserbox" transform="translate(-321.000000, -341.000000)">
            <g id="DARK" transform="translate(252.000000, 212.000000)">
                <g id="card">
                    <g id="Group-12" transform="translate(69.000000, 129.000000)">
                        <circle id="Oval-2" fill="#026D60" cx="121" cy="111" r="110.938673"></circle>
                        <g id="Page-1" transform="translate(2.921875, 28.028639)">
                            <g id="Group-3" transform="translate(24.506857, 0.595236)">
                                <mask id="mask-2" fill="white">
                                    <use xlink:href="#path-1"></use>
                                </mask>
                                <g id="Clip-2"></g>
                            </g>
                            <path d="M163.632898,51.0210262 C163.632898,51.0210262 163.724169,45.6360668 170.631787,48.1482316 C170.631787,48.1482316 168.388982,39.713502 182.298828,39.9828612 C182.298828,39.9828612 165.876817,35.4950241 166.773939,45.0984613 C166.773939,45.0984613 160.761217,45.4557519 163.632898,51.0210262" id="Fill-4" fill="#FEFEFE"></path>
                            <path d="M187.58494,62.0969219 C187.58494,62.0969219 187.676149,56.5803059 194.753957,59.1523958 C194.753957,59.1523958 192.457014,50.5118763 206.706878,50.7885432 C206.706878,50.7885432 189.884924,46.1916165 190.801573,56.0284923 C190.801573,56.0284923 184.643455,56.3963681 187.58494,62.0969219" id="Fill-6" fill="#FEFEFE"></path>
                            <path d="M129.9665,40.6788287 L120.993692,45.7430031 L106.645198,42.486861 L80.9833465,53.6781391 C51.9559031,49.7484577 2.10695632,49.0713635 11.078125,49.0713635 C21.882118,55.4384157 47.578125,85.5713635 69.985711,102.684445 C136.578125,101.071364 196.747931,113.682081 196.747931,113.682081 C194.047459,106.157383 178.804421,84.7409345 166.070316,69.885181 C153.336212,55.0294276 129.9665,40.6788287 129.9665,40.6788287 Z" id="Fill-8" fill="#008171"></path>
                            <path d="M181.780412,89.8171063 C181.780412,89.8171063 158.048673,63.1912518 89.1687446,50.1666836 C89.1687446,50.1666836 99.8759163,45.2477411 106.242968,41.4843397 C106.242968,41.4843397 139.816803,41.7726988 181.780412,89.8171063" id="Fill-10" fill="#000000"></path>
                            <path d="M111.228054,45.1485102 C111.228054,45.1485102 146.547124,60.7483784 91.578125,49.0713635 C94.578125,47.0713635 99.578125,45.0713635 105.084372,42.0713635" id="Fill-10" fill="#FFFFFF"></path>
                            <path d="M124.76446,43.6068308 C124.76446,43.6068308 141.840789,48.5257732 167.597356,71.6786902 C167.597356,71.6786902 156.311362,51.1315288 130.843153,40.1338932 L124.76446,43.6068308 Z" id="Fill-12" fill="#000000"></path>
                            <path d="M43.078125,75.5713635 C34.9746041,64.5716232 16.078125,49.5713635 16.078125,49.5713635 C118.820246,56.2288796 175.604267,93.5802972 175.604267,93.5802972 C111.933745,56.5335253 47.9748643,57.1123482 47.9748643,57.1123482 C33.578125,57.1123482 43.078125,75.5713635 43.078125,75.5713635 Z M125.972832,84.1423263 C124.244782,84.1423263 122.847188,82.2795689 122.847188,79.9769061 C122.847188,77.676348 124.244782,75.8072762 125.972832,75.8072762 C127.698777,75.8072762 129.096371,77.676348 129.096371,79.9769061 C129.096371,82.2795689 127.698777,84.1423263 125.972832,84.1423263 M111.502259,80.322095 C109.557414,80.322095 107.98512,78.2257036 107.98512,75.6367865 C107.98512,73.0478695 109.557414,70.9472685 111.502259,70.9472685 C113.442894,70.9472685 115.017293,73.0478695 115.017293,75.6367865 C115.017293,78.2257036 113.442894,80.322095 111.502259,80.322095 M95.871935,77.3711505 C93.7145041,77.3711505 91.9654065,75.0390203 91.9654065,72.1617442 C91.9654065,69.2844681 93.7145041,66.9523379 95.871935,66.9523379 C98.0293659,66.9523379 99.7784635,69.2844681 99.7784635,72.1617442 C99.7784635,75.0390203 98.0293659,77.3711505 95.871935,77.3711505 M0.078125,46.1147126 C28.1499844,65.506333 74.6007188,114.127459 74.6007188,114.127459 L200.784116,116.733214 C158.239579,42.353416 13.2454888,46.1147126 13.2454888,46.1147126 L0.078125,46.1147126 Z" id="Fill-14" fill="#000000"></path>
                            <path d="M43.078125,75.5713635 C34.9746041,64.5716232 16.078125,49.5713635 16.078125,49.5713635 C118.820246,56.2288796 175.604267,93.5802972 175.604267,93.5802972 C111.933745,56.5335253 47.9748643,57.1123482 47.9748643,57.1123482 C33.578125,57.1123482 43.078125,75.5713635 43.078125,75.5713635 Z" id="Path" fill="#FFFFFF"></path>
                            <path d="M99.7058105,77.5713635 C98.7460244,76.6323845 97.1631567,75.0675696 97.1631567,72.2153587 C97.1631567,69.3631479 98.7460244,68.0103426 99.7058105,67.0713635 C99.2259175,67.0713635 96.078125,68.5713635 96.078125,72.2153587 C96.078125,75.8593539 97.7058105,77.5713635 99.7058105,77.5713635 Z" id="Oval-3" fill="#FFFFFF" transform="translate(97.891968, 72.321364) rotate(-180.000000) translate(-97.891968, -72.321364) "></path>
                            <path d="M115.07666,80.0713635 C114.116874,79.1323845 112.570591,78.4235744 112.570591,75.5713635 C112.570591,72.7191527 114.116874,72.0103426 115.07666,71.0713635 C113.574358,71.0713635 112.072056,73.5713635 112.072056,75.8446312 C112.072056,78.1178988 114.070591,80.0713635 115.07666,80.0713635 Z" id="Oval-3" fill="#FFFFFF" transform="translate(113.574358, 75.571364) rotate(-180.000000) translate(-113.574358, -75.571364) "></path>
                            <path d="M128.555492,84.0713635 C128.010762,83.5384423 127.055492,81.6027288 127.055492,79.9839454 C127.055492,78.365162 128.510762,76.6042847 129.055492,76.0713635 C128.783127,76.0713635 126.078125,76.5713635 126.078125,79.9839454 C126.078125,83.3965273 127.953285,84.0713635 128.555492,84.0713635 Z" id="Oval-3" fill="#FFFFFF" transform="translate(127.566808, 80.071364) rotate(-180.000000) translate(-127.566808, -80.071364) "></path>
                        </g>
                        <g id="Group-8" transform="translate(0.421875, 130.661451)" fill="#FFFFFF">
                            <path d="M37.7710444,36.428771 C37.7710444,36.428771 74.1228629,55.6927415 111.317234,35.9854301 C148.511606,16.2781187 180.043375,-0.638059988 223.857594,11.9271921 C223.857594,11.9271921 190.996562,8.96078518 166.674281,25.7399848 C142.35053,42.5206574 90.0078518,72.1935643 37.7710444,36.428771" id="Fill-19"></path>
                            <path d="M0.278912264,31.0147101 C0.278912264,31.0147101 17.4622854,25.731442 45.1650708,33.8677042 C72.8663857,41.9995477 92.742105,41.017128 111.043,31.8719339 C111.043,31.8719339 93.1302969,36.5130205 73.3927975,29.222199 C53.6523573,21.9343233 23.2116427,13.9836457 0.278912264,31.0147101" id="Fill-21"></path>
                            <path d="M21.3861115,17.5501093 C21.3861115,17.5501093 43.6336243,16.0595414 55.1823333,19.0774996 C66.7266309,22.0939849 98.6980568,37.5181228 129.000552,22.7508953 C129.000552,22.7508953 111.567206,24.2606109 88.7476986,17.1774673 C65.9281908,10.0943238 48.1051833,5.77285508 21.3861115,17.5501093" id="Fill-23"></path>
                            <path d="M40.0277039,8.38193814 C40.0277039,8.38193814 54.1981786,4.33295466 70.2625592,8.08146792 C86.3284102,11.8285083 118.571864,26.2024733 148.052392,14.5857644 C148.052392,14.5857644 132.376204,16.6684354 106.58938,6.33903523 C80.8025574,-3.98741919 54.9054525,-0.534957462 40.0277039,8.38193814" id="Fill-25"></path>
                            <g id="Group-9" transform="translate(92.000000, 16.000000)">
                                <path d="M152.286238,6.35705979 C116.871403,-2.83107971 95.2082385,8.07736616 64.1051685,26.343488 C41.3836527,39.689298 21.123684,43.191079 10.3103379,44.0546647 C7.07281274,43.4627229 3.91494549,42.7307139 0.836653212,41.8855849 C0.836653212,41.8855849 29.1540758,43.7797256 62.9017736,23.9575286 C96.6494714,4.1382773 119.283706,-7.0188889 160.429106,6.75855436 C160.429106,6.75855436 157.449355,6.31551876 152.286238,6.35705979 Z" id="Combined-Shape"></path>
                            </g>
                        </g>
                    </g>
                </g>
            </g>
        </g>
    </g>
</svg>